<svg xmlns="http://www.w3.org/2000/svg" viewBox="0 0 500 500"><defs><style>.cls-1{fill:none;}.cls-2{fill:#5ecae6;}.cls-3,.cls-4{fill:#fff;}.cls-4{font-size:47.99px;font-family:Poppins-Bold, Poppins;font-weight:700;}.cls-5{fill:#c9eaf2;}</style></defs><g id="Layer_1" data-name="Layer 1"><path class="cls-1" d="M138.82,243.44l8,.05C144.85,244.44,142.08,244.37,138.82,243.44Z"/><path class="cls-2" d="M142.64,238.19c-4.41-2-20.22-1.8-35-.33l5.21,4,6.22,4.45,11.22,3.19,11.21.06,1.9-5.14-.23-4Z"/><path class="cls-3" d="M83.61,191.88c-3.54,7.19,4.71,23.69,19.4,38.38s31.33,22.89,38.53,19.34c0,0-1,1-1.51,1.43-6,6-23.87-2-39.83-18s-24-33.78-18-39.82l2.81-2.81c6-6,23.87,2,39.82,18s24,33.79,18,39.83c-.47.47,0,0-1.29,1.37,3.54-7.19-4.78-23.69-19.48-38.39s-31.25-22.88-38.45-19.33"/><path class="cls-3" d="M45,230.45l6.13-6.13c-6,6,2,23.87,18,39.83s33.78,24,39.82,18l-6.12,6.12c-6,6-23.87-2-39.83-18S39,236.49,45,230.45Z"/><path class="cls-3" d="M53.39,220.71a7.92,7.92,0,0,1,5-2.13,6.65,6.65,0,0,0-3.16,1.69c-6,6,2,23.86,18,39.82s33.79,24,39.83,18a6.55,6.55,0,0,0,1.67-3.09,7.9,7.9,0,0,1-2.12,4.92c-6.42,6.42-24.86-1.62-41.2-18S47,227.13,53.39,220.71Z"/><path class="cls-2" d="M129.77,305.68a5.89,5.89,0,1,0,11.77,0c0-3.25-2.64-13.47-5.89-13.47S129.77,302.43,129.77,305.68Z"/><path class="cls-2" d="M130.3,301.89H141s-3.36-11.4-3.25-17.8-.26-24.72,3.78-34.49l-16.94-3.07a5.48,5.48,0,0,1,2.84,2.57C131.94,257.19,137,284.48,130.3,301.89Z"/><text class="cls-4" transform="translate(156.61 272)">CanvaSwap</text><path class="cls-5" d="M140.23,238.17c-.36-.21-5.91-1.83-17.09-.52C123.14,237.65,135.15,237.14,140.23,238.17Z"/><path class="cls-5" d="M141.17,241.36s1.29,5.2-1,9A26.62,26.62,0,0,0,141.17,241.36Z"/><path class="cls-5" d="M136.67,309.81c-.29.3-3.69.41-5-1.41s-.42-6.57.58-8.08c0,0-1.67,5.63.15,7.55C134.35,310,135.22,309.5,136.67,309.81Z"/><path class="cls-5" d="M139.19,308.23s1.53-4.09-.64-7.46C138.55,300.77,142.24,304.14,139.19,308.23Z"/></g></svg>